<?xml version="1.0" encoding="UTF-8"?>
<svg id="Layer_2" data-name="Layer 2" xmlns="http://www.w3.org/2000/svg" viewBox="0 0 45.28 45.27">
  <defs>
    <style>
      .cls-1 {
        fill: #673de6;
      }

      .cls-2 {
        fill: #fff;
      }
    </style>
  </defs>
  <g id="Layer_1-2" data-name="Layer 1">
    <g>
      <path class="cls-1" d="M45.28,6.32C44.22,3.39,41.89,1.07,38.96,0l-16.31,16.31-6.33,6.32L0,38.95c1.07,2.93,3.4,5.26,6.33,6.32l16.31-16.31,6.32-6.32L45.28,6.32Z"/>
      <g>
        <path class="cls-2" d="M18.88,12.55L6.33,0C3.4,1.07,1.07,3.39,0,6.32l12.55,12.55,6.33-6.32Z"/>
        <path class="cls-2" d="M26.41,32.72l12.55,12.55c2.93-1.07,5.26-3.39,6.32-6.32l-12.55-12.55-6.32,6.32Z"/>
        <polygon class="cls-2" points="31.43 45.27 13.85 45.27 22.64 36.48 31.43 45.27"/>
        <polygon class="cls-2" points="31.43 0 22.64 8.79 13.85 0 31.43 0"/>
      </g>
    </g>
  </g>
</svg>